<svg width="26" height="23" viewBox="0 0 26 23" fill="none" xmlns="http://www.w3.org/2000/svg">
<g clip-path="url(#clip0_4_146)">
<path d="M5.55283 17.3904H18.5328V10.9291C18.5328 7.32901 15.6272 4.41036 12.0428 4.41036C8.4585 4.41036 5.55283 7.32901 5.55283 10.9291V17.3904ZM12.0428 2.55608C16.6507 2.55608 20.3871 6.30451 20.3871 10.9291V19.2446H3.69855V10.9291C3.69855 6.30451 7.43493 2.55608 12.0428 2.55608ZM9.72498 20.1718H14.3607C14.3607 20.7865 14.1165 21.3761 13.6818 21.8108C13.2471 22.2454 12.6576 22.4896 12.0428 22.4896C11.4281 22.4896 10.8385 22.2454 10.4039 21.8108C9.96918 21.3761 9.72498 20.7865 9.72498 20.1718Z" fill="white"/>
</g>
<circle cx="20.3863" cy="7.19145" r="3.70857" fill="#FF7C7C" stroke="#47BBE1" stroke-width="1.85429"/>
<defs>
<clipPath id="clip0_4_146">
<rect width="22.2514" height="22.2514" fill="white" transform="translate(0.917114 0.701797)"/>
</clipPath>
</defs>
</svg>
